<mxfile host="app.diagrams.net" modified="2023-11-10T11:52:14.849Z" agent="Mozilla/5.0 (X11; Linux x86_64) AppleWebKit/537.36 (KHTML, like Gecko) Chrome/118.0.0.0 Safari/537.36" etag="oHjioXKXWB-9v9M5sxD2" version="22.1.0" type="device">
  <diagram name="Page-1" id="PzGJnwcKluOTID_xE57Q">
    <mxGraphModel dx="1122" dy="672" grid="1" gridSize="10" guides="1" tooltips="1" connect="1" arrows="1" fold="1" page="1" pageScale="1" pageWidth="1169" pageHeight="827" math="0" shadow="0">
      <root>
        <mxCell id="0" />
        <mxCell id="1" parent="0" />
        <mxCell id="XGhutljAufKsqiRLGfkK-5" value="" style="rounded=0;whiteSpace=wrap;html=1;" vertex="1" parent="1">
          <mxGeometry x="280" y="120" width="440" height="560" as="geometry" />
        </mxCell>
        <mxCell id="XGhutljAufKsqiRLGfkK-4" value="" style="ellipse;whiteSpace=wrap;html=1;aspect=fixed;" vertex="1" parent="1">
          <mxGeometry x="330" y="156.3" width="209.5" height="209.5" as="geometry" />
        </mxCell>
        <mxCell id="e5J1Q0eCBrtVo35XwPM--2" value="main 1" style="rounded=0;whiteSpace=wrap;html=1;" parent="1" vertex="1">
          <mxGeometry x="400" y="160" width="80" height="40" as="geometry" />
        </mxCell>
        <mxCell id="e5J1Q0eCBrtVo35XwPM--3" value="game" style="rounded=0;whiteSpace=wrap;html=1;" parent="1" vertex="1">
          <mxGeometry x="600" y="220" width="80" height="80" as="geometry" />
        </mxCell>
        <mxCell id="e5J1Q0eCBrtVo35XwPM--4" value="main 2" style="rounded=0;whiteSpace=wrap;html=1;" parent="1" vertex="1">
          <mxGeometry x="400" y="240" width="80" height="40" as="geometry" />
        </mxCell>
        <mxCell id="e5J1Q0eCBrtVo35XwPM--5" value="main 4" style="rounded=0;whiteSpace=wrap;html=1;" parent="1" vertex="1">
          <mxGeometry x="400" y="400" width="80" height="40" as="geometry" />
        </mxCell>
        <mxCell id="e5J1Q0eCBrtVo35XwPM--6" value="" style="endArrow=classic;html=1;rounded=0;entryX=0;entryY=0.25;entryDx=0;entryDy=0;exitX=1;exitY=0.25;exitDx=0;exitDy=0;" parent="1" source="e5J1Q0eCBrtVo35XwPM--4" target="e5J1Q0eCBrtVo35XwPM--3" edge="1">
          <mxGeometry width="50" height="50" relative="1" as="geometry">
            <mxPoint x="460" y="320" as="sourcePoint" />
            <mxPoint x="510" y="270" as="targetPoint" />
          </mxGeometry>
        </mxCell>
        <mxCell id="e5J1Q0eCBrtVo35XwPM--7" value="move" style="edgeLabel;html=1;align=center;verticalAlign=middle;resizable=0;points=[];" parent="e5J1Q0eCBrtVo35XwPM--6" vertex="1" connectable="0">
          <mxGeometry x="-0.0861" y="3" relative="1" as="geometry">
            <mxPoint as="offset" />
          </mxGeometry>
        </mxCell>
        <mxCell id="e5J1Q0eCBrtVo35XwPM--8" value="" style="endArrow=classic;html=1;rounded=0;exitX=0;exitY=0.5;exitDx=0;exitDy=0;entryX=1;entryY=0.75;entryDx=0;entryDy=0;" parent="1" source="e5J1Q0eCBrtVo35XwPM--3" target="e5J1Q0eCBrtVo35XwPM--2" edge="1">
          <mxGeometry width="50" height="50" relative="1" as="geometry">
            <mxPoint x="460" y="320" as="sourcePoint" />
            <mxPoint x="510" y="270" as="targetPoint" />
          </mxGeometry>
        </mxCell>
        <mxCell id="e5J1Q0eCBrtVo35XwPM--11" value="move reply" style="edgeLabel;html=1;align=center;verticalAlign=middle;resizable=0;points=[];" parent="e5J1Q0eCBrtVo35XwPM--8" vertex="1" connectable="0">
          <mxGeometry x="0.1036" y="2" relative="1" as="geometry">
            <mxPoint as="offset" />
          </mxGeometry>
        </mxCell>
        <mxCell id="e5J1Q0eCBrtVo35XwPM--9" value="" style="endArrow=classic;html=1;rounded=0;exitX=0;exitY=0.5;exitDx=0;exitDy=0;entryX=1;entryY=0.5;entryDx=0;entryDy=0;" parent="1" source="e5J1Q0eCBrtVo35XwPM--3" target="e5J1Q0eCBrtVo35XwPM--4" edge="1">
          <mxGeometry width="50" height="50" relative="1" as="geometry">
            <mxPoint x="650" y="270" as="sourcePoint" />
            <mxPoint x="490" y="200" as="targetPoint" />
          </mxGeometry>
        </mxCell>
        <mxCell id="e5J1Q0eCBrtVo35XwPM--12" value="move reply" style="edgeLabel;html=1;align=center;verticalAlign=middle;resizable=0;points=[];" parent="e5J1Q0eCBrtVo35XwPM--9" vertex="1" connectable="0">
          <mxGeometry x="0.1846" y="2" relative="1" as="geometry">
            <mxPoint x="1" as="offset" />
          </mxGeometry>
        </mxCell>
        <mxCell id="e5J1Q0eCBrtVo35XwPM--10" value="" style="endArrow=classic;html=1;rounded=0;exitX=0;exitY=0.5;exitDx=0;exitDy=0;entryX=1;entryY=0.5;entryDx=0;entryDy=0;dashed=1;" parent="1" source="e5J1Q0eCBrtVo35XwPM--3" target="e5J1Q0eCBrtVo35XwPM--5" edge="1">
          <mxGeometry width="50" height="50" relative="1" as="geometry">
            <mxPoint x="650" y="270" as="sourcePoint" />
            <mxPoint x="490" y="250" as="targetPoint" />
          </mxGeometry>
        </mxCell>
        <mxCell id="e5J1Q0eCBrtVo35XwPM--13" value="no move reply !" style="edgeLabel;html=1;align=center;verticalAlign=middle;resizable=0;points=[];" parent="e5J1Q0eCBrtVo35XwPM--10" vertex="1" connectable="0">
          <mxGeometry x="0.1882" y="4" relative="1" as="geometry">
            <mxPoint as="offset" />
          </mxGeometry>
        </mxCell>
        <mxCell id="e5J1Q0eCBrtVo35XwPM--15" value="" style="endArrow=classic;html=1;rounded=0;exitX=-0.02;exitY=1.051;exitDx=0;exitDy=0;exitPerimeter=0;" parent="1" source="e5J1Q0eCBrtVo35XwPM--26" edge="1">
          <mxGeometry width="50" height="50" relative="1" as="geometry">
            <mxPoint x="351.6" y="630.5" as="sourcePoint" />
            <mxPoint x="461.6" y="600.5" as="targetPoint" />
          </mxGeometry>
        </mxCell>
        <mxCell id="e5J1Q0eCBrtVo35XwPM--30" value="x" style="edgeLabel;html=1;align=center;verticalAlign=middle;resizable=0;points=[];" parent="e5J1Q0eCBrtVo35XwPM--15" vertex="1" connectable="0">
          <mxGeometry x="0.8" relative="1" as="geometry">
            <mxPoint x="-8" y="-1" as="offset" />
          </mxGeometry>
        </mxCell>
        <mxCell id="e5J1Q0eCBrtVo35XwPM--16" value="" style="endArrow=classic;html=1;rounded=0;exitX=-0.013;exitY=0.986;exitDx=0;exitDy=0;exitPerimeter=0;" parent="1" source="e5J1Q0eCBrtVo35XwPM--26" edge="1">
          <mxGeometry width="50" height="50" relative="1" as="geometry">
            <mxPoint x="311.6" y="600.5" as="sourcePoint" />
            <mxPoint x="341.6" y="480.5" as="targetPoint" />
          </mxGeometry>
        </mxCell>
        <mxCell id="e5J1Q0eCBrtVo35XwPM--31" value="y" style="edgeLabel;html=1;align=center;verticalAlign=middle;resizable=0;points=[];" parent="e5J1Q0eCBrtVo35XwPM--16" vertex="1" connectable="0">
          <mxGeometry x="0.6833" relative="1" as="geometry">
            <mxPoint as="offset" />
          </mxGeometry>
        </mxCell>
        <mxCell id="e5J1Q0eCBrtVo35XwPM--17" value="" style="shape=table;startSize=0;container=1;collapsible=0;childLayout=tableLayout;fontSize=16;" parent="1" vertex="1">
          <mxGeometry x="341.6" y="520.5" width="80" height="79" as="geometry" />
        </mxCell>
        <mxCell id="e5J1Q0eCBrtVo35XwPM--18" value="" style="shape=tableRow;horizontal=0;startSize=0;swimlaneHead=0;swimlaneBody=0;strokeColor=inherit;top=0;left=0;bottom=0;right=0;collapsible=0;dropTarget=0;fillColor=none;points=[[0,0.5],[1,0.5]];portConstraint=eastwest;fontSize=16;" parent="e5J1Q0eCBrtVo35XwPM--17" vertex="1">
          <mxGeometry width="80" height="24" as="geometry" />
        </mxCell>
        <mxCell id="e5J1Q0eCBrtVo35XwPM--19" value="6" style="shape=partialRectangle;html=1;whiteSpace=wrap;connectable=0;strokeColor=inherit;overflow=hidden;fillColor=none;top=0;left=0;bottom=0;right=0;pointerEvents=1;fontSize=16;" parent="e5J1Q0eCBrtVo35XwPM--18" vertex="1">
          <mxGeometry width="27" height="24" as="geometry">
            <mxRectangle width="27" height="24" as="alternateBounds" />
          </mxGeometry>
        </mxCell>
        <mxCell id="e5J1Q0eCBrtVo35XwPM--20" value="5" style="shape=partialRectangle;html=1;whiteSpace=wrap;connectable=0;strokeColor=inherit;overflow=hidden;fillColor=none;top=0;left=0;bottom=0;right=0;pointerEvents=1;fontSize=16;" parent="e5J1Q0eCBrtVo35XwPM--18" vertex="1">
          <mxGeometry x="27" width="26" height="24" as="geometry">
            <mxRectangle width="26" height="24" as="alternateBounds" />
          </mxGeometry>
        </mxCell>
        <mxCell id="e5J1Q0eCBrtVo35XwPM--21" value="4" style="shape=partialRectangle;html=1;whiteSpace=wrap;connectable=0;strokeColor=inherit;overflow=hidden;fillColor=none;top=0;left=0;bottom=0;right=0;pointerEvents=1;fontSize=16;" parent="e5J1Q0eCBrtVo35XwPM--18" vertex="1">
          <mxGeometry x="53" width="27" height="24" as="geometry">
            <mxRectangle width="27" height="24" as="alternateBounds" />
          </mxGeometry>
        </mxCell>
        <mxCell id="e5J1Q0eCBrtVo35XwPM--22" value="" style="shape=tableRow;horizontal=0;startSize=0;swimlaneHead=0;swimlaneBody=0;strokeColor=inherit;top=0;left=0;bottom=0;right=0;collapsible=0;dropTarget=0;fillColor=none;points=[[0,0.5],[1,0.5]];portConstraint=eastwest;fontSize=16;" parent="e5J1Q0eCBrtVo35XwPM--17" vertex="1">
          <mxGeometry y="24" width="80" height="31" as="geometry" />
        </mxCell>
        <mxCell id="e5J1Q0eCBrtVo35XwPM--23" value="7" style="shape=partialRectangle;html=1;whiteSpace=wrap;connectable=0;strokeColor=inherit;overflow=hidden;fillColor=none;top=0;left=0;bottom=0;right=0;pointerEvents=1;fontSize=16;" parent="e5J1Q0eCBrtVo35XwPM--22" vertex="1">
          <mxGeometry width="27" height="31" as="geometry">
            <mxRectangle width="27" height="31" as="alternateBounds" />
          </mxGeometry>
        </mxCell>
        <mxCell id="e5J1Q0eCBrtVo35XwPM--24" value="" style="shape=partialRectangle;html=1;whiteSpace=wrap;connectable=0;strokeColor=inherit;overflow=hidden;fillColor=none;top=0;left=0;bottom=0;right=0;pointerEvents=1;fontSize=16;" parent="e5J1Q0eCBrtVo35XwPM--22" vertex="1">
          <mxGeometry x="27" width="26" height="31" as="geometry">
            <mxRectangle width="26" height="31" as="alternateBounds" />
          </mxGeometry>
        </mxCell>
        <mxCell id="e5J1Q0eCBrtVo35XwPM--25" value="3" style="shape=partialRectangle;html=1;whiteSpace=wrap;connectable=0;strokeColor=inherit;overflow=hidden;fillColor=none;top=0;left=0;bottom=0;right=0;pointerEvents=1;fontSize=16;" parent="e5J1Q0eCBrtVo35XwPM--22" vertex="1">
          <mxGeometry x="53" width="27" height="31" as="geometry">
            <mxRectangle width="27" height="31" as="alternateBounds" />
          </mxGeometry>
        </mxCell>
        <mxCell id="e5J1Q0eCBrtVo35XwPM--26" value="" style="shape=tableRow;horizontal=0;startSize=0;swimlaneHead=0;swimlaneBody=0;strokeColor=inherit;top=0;left=0;bottom=0;right=0;collapsible=0;dropTarget=0;fillColor=none;points=[[0,0.5],[1,0.5]];portConstraint=eastwest;fontSize=16;" parent="e5J1Q0eCBrtVo35XwPM--17" vertex="1">
          <mxGeometry y="55" width="80" height="24" as="geometry" />
        </mxCell>
        <mxCell id="e5J1Q0eCBrtVo35XwPM--27" value="0" style="shape=partialRectangle;html=1;whiteSpace=wrap;connectable=0;strokeColor=inherit;overflow=hidden;fillColor=none;top=0;left=0;bottom=0;right=0;pointerEvents=1;fontSize=16;" parent="e5J1Q0eCBrtVo35XwPM--26" vertex="1">
          <mxGeometry width="27" height="24" as="geometry">
            <mxRectangle width="27" height="24" as="alternateBounds" />
          </mxGeometry>
        </mxCell>
        <mxCell id="e5J1Q0eCBrtVo35XwPM--28" value="1" style="shape=partialRectangle;html=1;whiteSpace=wrap;connectable=0;strokeColor=inherit;overflow=hidden;fillColor=none;top=0;left=0;bottom=0;right=0;pointerEvents=1;fontSize=16;" parent="e5J1Q0eCBrtVo35XwPM--26" vertex="1">
          <mxGeometry x="27" width="26" height="24" as="geometry">
            <mxRectangle width="26" height="24" as="alternateBounds" />
          </mxGeometry>
        </mxCell>
        <mxCell id="e5J1Q0eCBrtVo35XwPM--29" value="2" style="shape=partialRectangle;html=1;whiteSpace=wrap;connectable=0;strokeColor=inherit;overflow=hidden;fillColor=none;top=0;left=0;bottom=0;right=0;pointerEvents=1;fontSize=16;" parent="e5J1Q0eCBrtVo35XwPM--26" vertex="1">
          <mxGeometry x="53" width="27" height="24" as="geometry">
            <mxRectangle width="27" height="24" as="alternateBounds" />
          </mxGeometry>
        </mxCell>
        <mxCell id="e5J1Q0eCBrtVo35XwPM--89" value="" style="endArrow=classic;html=1;rounded=0;" parent="1" edge="1">
          <mxGeometry width="50" height="50" relative="1" as="geometry">
            <mxPoint x="580" y="559" as="sourcePoint" />
            <mxPoint x="660" y="640" as="targetPoint" />
          </mxGeometry>
        </mxCell>
        <mxCell id="e5J1Q0eCBrtVo35XwPM--101" value="x" style="edgeLabel;html=1;align=center;verticalAlign=middle;resizable=0;points=[];" parent="e5J1Q0eCBrtVo35XwPM--89" vertex="1" connectable="0">
          <mxGeometry x="0.5644" y="-1" relative="1" as="geometry">
            <mxPoint as="offset" />
          </mxGeometry>
        </mxCell>
        <mxCell id="e5J1Q0eCBrtVo35XwPM--90" value="" style="endArrow=classic;html=1;rounded=0;" parent="1" edge="1">
          <mxGeometry width="50" height="50" relative="1" as="geometry">
            <mxPoint x="580" y="559" as="sourcePoint" />
            <mxPoint x="660" y="480" as="targetPoint" />
          </mxGeometry>
        </mxCell>
        <mxCell id="e5J1Q0eCBrtVo35XwPM--100" value="y" style="edgeLabel;html=1;align=center;verticalAlign=middle;resizable=0;points=[];" parent="e5J1Q0eCBrtVo35XwPM--90" vertex="1" connectable="0">
          <mxGeometry x="0.6394" y="3" relative="1" as="geometry">
            <mxPoint as="offset" />
          </mxGeometry>
        </mxCell>
        <mxCell id="e5J1Q0eCBrtVo35XwPM--91" value="0" style="rounded=0;whiteSpace=wrap;html=1;direction=south;rotation=45;" parent="1" vertex="1">
          <mxGeometry x="584" y="549" width="20" height="20" as="geometry" />
        </mxCell>
        <mxCell id="e5J1Q0eCBrtVo35XwPM--92" value="1" style="rounded=0;whiteSpace=wrap;html=1;direction=south;rotation=45;" parent="1" vertex="1">
          <mxGeometry x="598" y="563" width="20" height="20" as="geometry" />
        </mxCell>
        <mxCell id="e5J1Q0eCBrtVo35XwPM--93" value="2" style="rounded=0;whiteSpace=wrap;html=1;direction=south;rotation=45;" parent="1" vertex="1">
          <mxGeometry x="612" y="577" width="20" height="20" as="geometry" />
        </mxCell>
        <mxCell id="e5J1Q0eCBrtVo35XwPM--94" value="3" style="rounded=0;whiteSpace=wrap;html=1;direction=south;rotation=45;" parent="1" vertex="1">
          <mxGeometry x="626" y="563" width="20" height="20" as="geometry" />
        </mxCell>
        <mxCell id="e5J1Q0eCBrtVo35XwPM--95" value="4" style="rounded=0;whiteSpace=wrap;html=1;direction=south;rotation=45;" parent="1" vertex="1">
          <mxGeometry x="640" y="549" width="20" height="20" as="geometry" />
        </mxCell>
        <mxCell id="e5J1Q0eCBrtVo35XwPM--96" value="7" style="rounded=0;whiteSpace=wrap;html=1;direction=south;rotation=45;" parent="1" vertex="1">
          <mxGeometry x="598" y="535" width="20" height="20" as="geometry" />
        </mxCell>
        <mxCell id="e5J1Q0eCBrtVo35XwPM--97" value="6" style="rounded=0;whiteSpace=wrap;html=1;direction=south;rotation=45;" parent="1" vertex="1">
          <mxGeometry x="612" y="521" width="20" height="20" as="geometry" />
        </mxCell>
        <mxCell id="e5J1Q0eCBrtVo35XwPM--98" value="5" style="rounded=0;whiteSpace=wrap;html=1;direction=south;rotation=45;" parent="1" vertex="1">
          <mxGeometry x="626" y="535" width="20" height="20" as="geometry" />
        </mxCell>
        <mxCell id="e5J1Q0eCBrtVo35XwPM--99" value="" style="rounded=0;whiteSpace=wrap;html=1;direction=south;rotation=45;" parent="1" vertex="1">
          <mxGeometry x="612" y="549" width="20" height="20" as="geometry" />
        </mxCell>
        <mxCell id="e5J1Q0eCBrtVo35XwPM--102" value="" style="shape=flexArrow;endArrow=classic;html=1;rounded=0;" parent="1" edge="1">
          <mxGeometry width="50" height="50" relative="1" as="geometry">
            <mxPoint x="460" y="559.5799999999999" as="sourcePoint" />
            <mxPoint x="560" y="559.5799999999999" as="targetPoint" />
          </mxGeometry>
        </mxCell>
        <mxCell id="e5J1Q0eCBrtVo35XwPM--103" value="rotate 45 degree" style="edgeLabel;html=1;align=center;verticalAlign=middle;resizable=0;points=[];" parent="e5J1Q0eCBrtVo35XwPM--102" vertex="1" connectable="0">
          <mxGeometry x="-0.0667" y="-2" relative="1" as="geometry">
            <mxPoint x="-9" y="-16" as="offset" />
          </mxGeometry>
        </mxCell>
        <mxCell id="e5J1Q0eCBrtVo35XwPM--104" value="Coordinate and Direction" style="text;html=1;strokeColor=none;fillColor=none;align=center;verticalAlign=middle;whiteSpace=wrap;rounded=0;" parent="1" vertex="1">
          <mxGeometry x="421.6" y="630.5" width="150" height="30" as="geometry" />
        </mxCell>
        <mxCell id="e5J1Q0eCBrtVo35XwPM--105" value="" style="shape=umlActor;verticalLabelPosition=bottom;verticalAlign=top;html=1;outlineConnect=0;" parent="1" vertex="1">
          <mxGeometry x="376.6" y="550" width="10" height="20" as="geometry" />
        </mxCell>
        <mxCell id="e5J1Q0eCBrtVo35XwPM--106" value="" style="shape=umlActor;verticalLabelPosition=bottom;verticalAlign=top;html=1;outlineConnect=0;" parent="1" vertex="1">
          <mxGeometry x="617" y="550" width="10" height="20" as="geometry" />
        </mxCell>
        <mxCell id="XGhutljAufKsqiRLGfkK-1" value="main 3" style="rounded=0;whiteSpace=wrap;html=1;" vertex="1" parent="1">
          <mxGeometry x="400" y="320" width="80" height="40" as="geometry" />
        </mxCell>
        <mxCell id="XGhutljAufKsqiRLGfkK-2" value="" style="endArrow=classic;html=1;rounded=0;exitX=0;exitY=0.5;exitDx=0;exitDy=0;entryX=1;entryY=0.5;entryDx=0;entryDy=0;" edge="1" parent="1" source="e5J1Q0eCBrtVo35XwPM--3" target="XGhutljAufKsqiRLGfkK-1">
          <mxGeometry width="50" height="50" relative="1" as="geometry">
            <mxPoint x="610" y="270" as="sourcePoint" />
            <mxPoint x="490" y="270" as="targetPoint" />
          </mxGeometry>
        </mxCell>
        <mxCell id="XGhutljAufKsqiRLGfkK-3" value="move reply" style="edgeLabel;html=1;align=center;verticalAlign=middle;resizable=0;points=[];" vertex="1" connectable="0" parent="XGhutljAufKsqiRLGfkK-2">
          <mxGeometry x="0.1846" y="2" relative="1" as="geometry">
            <mxPoint x="1" as="offset" />
          </mxGeometry>
        </mxCell>
      </root>
    </mxGraphModel>
  </diagram>
</mxfile>
